Coordinates
version=1
nRows=9
nColumns=42
inDegrees=yes

Units are S.I. units (second, meters, Newtons, ...)
If the header above contains a line with 'inDegrees', this indicates whether rotational values are in degrees (yes) or radians (no).

endheader
time	pelvis_tilt	pelvis_list	pelvis_rotation	pelvis_tx	pelvis_ty	pelvis_tz	hip_flexion_r	hip_adduction_r	hip_rotation_r	knee_angle_r	knee_adduction_r	knee_angle_r_beta	ankle_angle_r	subtalar_angle_r	mtp_angle_r	hip_flexion_l	hip_adduction_l	hip_rotation_l	knee_angle_l	knee_adduction_l	knee_angle_l_beta	ankle_angle_l	subtalar_angle_l	mtp_angle_l	lumbar_extension	lumbar_bending	lumbar_rotation	arm_flex_r	arm_add_r	arm_rot_r	elbow_flex_r	pro_sup_r	wrist_flex_r	wrist_dev_r	arm_flex_l	arm_add_l	arm_rot_l	elbow_flex_l	pro_sup_l	wrist_flex_l	wrist_dev_l
      1.68000000	      1.86877837	     -1.44003937	      0.24111009	     -0.42834998	      0.97767416	      0.33088236	      1.48194943	      0.20194558	     -8.91458445	      9.55595307	      4.29797479	      0.16678284	     10.79622115	     16.69746208	     -7.52642933	     16.28348434	     -6.90709179	    -10.77329425	     58.40792665	     -4.49772837	      1.01941063	      4.37743443	      0.53118883	     -7.52642933	    -10.41995670	      4.69688517	     -0.36093721	     -2.39451105	    -13.17219825	      0.88420176	     31.51884279	     90.00000001	      0.00000000	      0.00000000	     -6.06065513	    -15.94707625	     18.16909828	     38.73820494	     90.00000001	      0.00000000	      0.00000000
      1.69000000	      2.07406685	     -1.30276949	     -0.08711879	     -0.41898721	      0.97830596	      0.33139962	      0.42211311	      0.18810629	     -7.52355646	      9.03331866	      4.35604937	      0.15766115	     10.91570829	     15.19944973	     -7.52429794	     17.07404827	     -6.78681567	    -11.65581004	     57.22599474	     -4.84509851	      0.99878203	      5.12988941	      1.28257714	     -7.52429794	    -10.71919926	      4.41243487	      0.01398250	     -2.22531282	    -13.67330443	      1.76178764	     32.90538580	     90.00000001	      0.00000000	      0.00000000	     -6.42444618	    -15.29881956	     16.44684447	     37.76091724	     90.00000001	      0.00000000	      0.00000000
      1.70000000	      2.10823394	     -1.18121553	     -0.36045401	     -0.40985029	      0.97857282	      0.33197446	     -0.17240750	      0.18041040	     -7.31641279	      9.04764718	      4.15785344	      0.15791123	     11.21352619	     15.22073994	     -7.52399652	     18.01270031	     -6.64491172	    -11.98090817	     55.92573885	     -4.75668174	      0.97608828	      5.56529607	      1.00660483	     -7.52399652	    -10.83813137	      4.13130365	      0.23284245	     -1.65669114	    -13.84823751	      1.77099105	     33.33970416	     90.00000001	      0.00000000	      0.00000000	     -7.06131339	    -15.27683276	     16.36776588	     37.56293520	     90.00000001	      0.00000000	      0.00000000
      1.71000000	      2.08752424	     -1.19642457	     -0.56666273	     -0.40071903	      0.97852597	      0.33251717	     -0.71444490	      0.23882996	     -7.34656279	      9.09724109	      4.11106048	      0.15877681	     11.41380712	     15.18838227	     -7.52379618	     19.01510756	     -6.71101267	    -12.25128366	     54.59177172	     -4.58245321	      0.95280616	      5.80186715	      0.84873580	     -7.52379618	    -10.87660623	      3.99691131	      0.55492329	     -1.06900141	    -14.08196950	      1.73992222	     33.74796628	     90.00000001	      0.00000000	      0.00000000	     -7.50764379	    -15.28053376	     16.31258978	     37.45311429	     90.00000001	      0.00000000	      0.00000000
      1.72000000	      2.34822896	     -0.71885741	     -0.92428342	     -0.39123963	      0.97878629	      0.33259897	     -1.89426086	     -0.28497152	     -6.03901564	      8.48691739	      4.24784648	      0.14812465	     12.10034547	     14.85362289	     -7.52227104	     19.42873504	     -6.05338063	    -13.03344333	     52.71013965	     -4.76948317	      0.91996549	      6.00754002	     -0.29460232	     -7.52227104	    -11.20667918	      3.35629296	      0.80949090	     -1.02360743	    -14.50481773	      2.36710522	     35.36598136	     90.00000001	      0.00000000	      0.00000000	     -7.99345021	    -14.68618978	     14.42634228	     36.68863128	     90.00000001	      0.00000000	      0.00000000
      1.73000000	      2.35099751	     -0.58629601	     -1.17641644	     -0.38202216	      0.97848667	      0.33292420	     -2.56468937	     -0.43162893	     -5.74946292	      8.33635797	      4.26330796	      0.14549689	     12.59136117	     14.97428104	     -7.52181750	     20.18183479	     -5.85847994	    -13.33981862	     50.91667890	     -4.63911048	      0.88866369	      6.36396441	     -0.55809323	     -7.52181750	    -11.26001388	      3.06930362	      1.05134974	     -0.50492093	    -14.69873010	      2.47906853	     35.79453062	     90.00000001	      0.00000000	      0.00000000	     -8.53382384	    -14.59114334	     14.10254965	     36.49158638	     90.00000001	      0.00000000	      0.00000000
      1.74000000	      2.32215123	     -0.50881189	     -1.39523481	     -0.37286445	      0.97796997	      0.33322683	     -3.20606303	     -0.50052040	     -5.53372470	      8.17516956	      4.21741023	      0.14268363	     13.02982186	     15.13290225	     -7.52142817	     20.92595373	     -5.72002136	    -13.59199229	     49.01273017	     -4.49825933	      0.85543352	      6.46696438	     -0.73665511	     -7.52142817	    -11.28181529	      2.84127836	      1.26628585	     -0.01966220	    -14.90263890	      2.57553643	     36.35552592	     90.00000001	      0.00000000	      0.00000000	     -9.02269096	    -14.50552608	     13.76349412	     36.28155231	     90.00000001	      0.00000000	      0.00000000
      1.75000000	      2.33015767	     -0.44311925	     -1.61938057	     -0.36363460	      0.97731821	      0.33337888	     -3.94351758	     -0.63939993	     -5.34181793	      7.92135598	      4.31595674	      0.13825374	     13.55898782	     15.36545746	     -7.52090206	     21.54778617	     -5.56658203	    -13.76582923	     46.98354892	     -4.32478886	      0.82001762	      6.44805080	     -0.84702153	     -7.52090206	    -11.34679020	      2.64401930	      1.52679149	      0.34753305	    -15.18562387	      2.80286664	     37.04715877	     90.00000001	      0.00000000	      0.00000000	     -9.46493115	    -14.30648081	     13.16963106	     35.97579536	     90.00000001	      0.00000000	      0.00000000
      1.76000000	      2.15158275	     -0.63536813	     -1.79293849	     -0.35455891	      0.97624200	      0.33368727	     -4.35502059	     -0.42171472	     -5.45629778	      7.92326936	      4.24503291	      0.13828714	     13.80610678	     15.40135263	     -7.52068062	     22.40750090	     -5.74878318	    -13.86899605	     45.03129578	     -4.14134340	      0.78594438	      6.45807390	     -0.76325699	     -7.52068062	    -11.21194722	      2.71836281	      1.76159736	      0.83602943	    -15.37838166	      2.83151788	     37.45603764	     90.00000001	      0.00000000	      0.00000000	     -9.93296563	    -14.23127830	     13.04896045	     35.84030340	     90.00000001	      0.00000000	      0.00000000
